<?xml version="1.0" encoding="UTF-8"?>
<svg version="1.1" xmlns="http://www.w3.org/2000/svg" width="310" height="163">
<path d="M0 0 C102.3 0 204.6 0 310 0 C310 53.79 310 107.58 310 163 C207.7 163 105.4 163 0 163 C0 109.21 0 55.42 0 0 Z " fill="#FCFCFC" transform="translate(0,0)"/>
<path d="M0 0 C49.5 0 99 0 150 0 C150 0.33 150 0.66 150 1 C148.97261719 1.21914063 147.94523438 1.43828125 146.88671875 1.6640625 C130.41526244 5.35429073 117.7847172 12.66509738 107.53515625 26.4765625 C103.28779584 33.45822872 100.95605873 40.92435496 100 49 C99.00742188 49.06316406 98.01484375 49.12632813 96.9921875 49.19140625 C84.91446329 50.18641202 74.25281825 53.17786391 65.4375 62.125 C61.17377562 67.41568595 59.05977424 73.59291378 57 80 C56.15179688 79.96519531 55.30359375 79.93039063 54.4296875 79.89453125 C37.61583081 79.50651917 23.5996487 82.89751236 11.1953125 94.6796875 C5.47917911 100.72129467 3.01599031 107.00159943 1 115 C0.67 115 0.34 115 0 115 C0 77.05 0 39.1 0 0 Z " fill="#FEFEFE" transform="translate(0,0)"/>
<path d="M0 0 C46.86 0 93.72 0 142 0 C142 39.93 142 79.86 142 121 C141.34 119.68 140.68 118.36 140 117 C135.46892543 107.56095525 135.46892543 107.56095525 127.82421875 100.93359375 C124.45176908 99.26116781 121.69549649 97.86160731 120.31591797 94.16894531 C119.54563917 91.12274757 118.99538276 88.05517291 118.44799805 84.96240234 C116.23979126 72.92320507 109.60425707 63.50067393 99.7265625 56.35546875 C90.30430497 50.33315204 79.53763829 45.84204472 68.26171875 45.90234375 C67.19501953 45.90556641 66.12832031 45.90878906 65.02929688 45.91210938 C63.92650391 45.92048828 62.82371094 45.92886719 61.6875 45.9375 C60.00430664 45.94426758 60.00430664 45.94426758 58.28710938 45.95117188 C55.5246849 45.96292687 52.76237002 45.97935923 50 46 C49.76514893 45.20207031 49.53029785 44.40414062 49.28833008 43.58203125 C44.67972313 28.24204828 36.77567136 16.95628436 23.07421875 8.60546875 C15.81299103 4.81339176 8.11207312 2.15360798 0 1 C0 0.67 0 0.34 0 0 Z " fill="#FEFEFE" transform="translate(168,0)"/>
<path d="M0 0 C9.25336786 7.32695498 16.18440738 18.57615219 17.84375 30.3046875 C17.8953125 30.86414062 17.946875 31.42359375 18 32 C18.8146875 31.84144531 19.629375 31.68289062 20.46875 31.51953125 C36.96402319 29.09268243 52.99529165 31.52994872 67 41 C76.70553486 48.43615244 85.59614438 58.26489833 87.59765625 70.71875 C87.75105469 71.9665625 87.90445312 73.214375 88.0625 74.5 C88.69151619 78.42286065 89.3339044 81.32091317 92.203125 84.24609375 C93.9375888 85.37037942 95.70306577 86.4482466 97.49609375 87.4765625 C104.74435314 91.88657991 106.93200705 99.33001761 110 107 C110 120.86 110 134.72 110 149 C7.7 149 -94.6 149 -200 149 C-200 91.33133562 -200 91.33133562 -187.625 78.25 C-177.22316415 68.45870668 -164.10129569 65.07591545 -150 65 C-147.57951272 65.17545542 -145.37911526 65.50204564 -143 66 C-142.79375 64.700625 -142.5875 63.40125 -142.375 62.0625 C-140.35447957 53.12450339 -134.45461912 46.13143302 -127 41 C-119.76540817 37.07787578 -113.45050182 34.83794576 -105.1875 34.9375 C-104.21167969 34.94652344 -103.23585938 34.95554688 -102.23046875 34.96484375 C-101.12638672 34.98224609 -101.12638672 34.98224609 -100 35 C-100.103125 34.113125 -100.20625 33.22625 -100.3125 32.3125 C-100.27191211 22.30758623 -94.50088287 13.15643409 -88 6 C-87.14148438 4.98679687 -87.14148438 4.98679687 -86.265625 3.953125 C-63.57215915 -21.06787581 -25.58736704 -18.4122745 0 0 Z M-87 9 C-93.92074266 17.88902726 -96.97194721 26.89702982 -98 38 C-99.12535156 37.94779297 -99.12535156 37.94779297 -100.2734375 37.89453125 C-112.32962222 37.5756649 -122.65367691 40.42614436 -131.8203125 48.62890625 C-136.48968641 53.6854393 -140.22162179 60.03889214 -140.25 67.0625 C-140.1675 68.031875 -140.085 69.00125 -140 70 C-140.57113525 69.84063965 -141.14227051 69.6812793 -141.73071289 69.51708984 C-154.63657317 66.57630318 -168.38594228 68.66748808 -179.54296875 75.57421875 C-188.42821541 81.95909449 -194.51151404 90.29062291 -197 101 C-198.26181827 111.25227347 -195.80453837 120.48429521 -189.77734375 128.83984375 C-182.46785434 137.72368472 -172.53931664 144.25677807 -161 146 C-157.84222448 146.14884207 -154.68758518 146.14782225 -151.5267334 146.14717102 C-150.56791527 146.15084771 -149.60909715 146.1545244 -148.62122393 146.1583125 C-145.40568031 146.16933274 -142.19016903 146.1731904 -138.97460938 146.17700195 C-136.66986997 146.18326793 -134.36513158 146.18991485 -132.06039429 146.19691467 C-124.48818667 146.2179442 -116.91597887 146.2283171 -109.34375 146.23828125 C-106.73478688 146.24232944 -104.12582387 146.24644638 -101.51686096 146.25063133 C-90.66163141 146.26749935 -79.80640477 146.28213312 -68.95116425 146.28938007 C-66.13638813 146.29128978 -63.32161202 146.29321014 -60.50683594 146.29516602 C-59.45751462 146.29589163 -59.45751462 146.29589163 -58.3869949 146.2966319 C-47.06669005 146.30492388 -35.74649115 146.33024775 -24.42623252 146.36274669 C-12.78800971 146.39588435 -1.1498461 146.41350266 10.48842382 146.41702431 C17.01638591 146.41937163 23.5441805 146.42829079 30.07209778 146.45348549 C36.21825538 146.47682336 42.3641359 146.48097628 48.51032639 146.47072411 C50.7592346 146.47023001 53.00815673 146.47651308 55.25702286 146.49028015 C71.71725357 146.58536222 85.85367815 145.94671771 98.7421875 134.4453125 C104.32665212 128.63858063 107.12289975 120.93202533 107.5 112.9375 C107.04370049 103.64959707 102.78865622 96.18111111 96 90 C90.98987741 85.7759626 90.98987741 85.7759626 85 84 C85.05800781 83.20078125 85.11601562 82.4015625 85.17578125 81.578125 C85.67198801 69.49903475 82.14638554 60.48328313 74.2890625 51.31640625 C64.83661708 41.75104766 51.12164386 34.18043882 37.44140625 33.734375 C35.8151043 33.72912463 34.18873656 33.73449973 32.5625 33.75 C31.75490234 33.74226563 30.94730469 33.73453125 30.11523438 33.7265625 C24.75818783 33.74382937 20.14657481 34.5109795 15 36 C15.00902344 35.44054688 15.01804688 34.88109375 15.02734375 34.3046875 C14.63670061 23.74033835 9.19975416 13.33429976 1.9453125 5.73828125 C-10.7250143 -5.58359712 -26.11233898 -11.8789132 -43.2109375 -11.3125 C-60.59457725 -9.87879775 -75.15416272 -4.13217617 -87 9 Z " fill="#C1C0C0" transform="translate(200,14)"/>
<path d="M0 0 C1.19496094 0.00483398 1.19496094 0.00483398 2.4140625 0.00976562 C3.66316406 0.02233398 3.66316406 0.02233398 4.9375 0.03515625 C5.77023438 0.03966797 6.60296875 0.04417969 7.4609375 0.04882812 C9.00392062 0.0575667 10.54689439 0.06835093 12.08984375 0.08178711 C13.37235944 0.09280237 14.65493701 0.09765625 15.9375 0.09765625 C17.5875 0.09765625 19.2375 0.09765625 20.9375 0.09765625 C20.9375 5.70765625 20.9375 11.31765625 20.9375 17.09765625 C26.8775 17.09765625 32.8175 17.09765625 38.9375 17.09765625 C38.4425 18.58265625 38.4425 18.58265625 37.9375 20.09765625 C34.47923658 20.15554631 31.02109707 20.19121446 27.5625 20.22265625 C26.57765625 20.23941406 25.5928125 20.25617188 24.578125 20.2734375 C23.63710937 20.27988281 22.69609375 20.28632812 21.7265625 20.29296875 C20.42259521 20.3086792 20.42259521 20.3086792 19.09228516 20.32470703 C16.9375 20.09765625 16.9375 20.09765625 14.9375 18.09765625 C14.2775 18.75765625 13.6175 19.41765625 12.9375 20.09765625 C10.12005804 20.3508433 7.44340091 20.46794714 4.625 20.47265625 C3.86509766 20.49714844 3.10519531 20.52164063 2.32226562 20.546875 C-1.65757625 20.56762135 -3.60182779 20.39108573 -7.04296875 18.19921875 C-10.16236311 14.95311785 -10.39639389 12.63848427 -10.35546875 8.13671875 C-9.89995033 4.96631058 -8.30934343 3.27841605 -6.0625 1.09765625 C-3.78206954 -0.04255898 -2.52960864 -0.0181244 0 0 Z " fill="#FEF6F6" transform="translate(175.0625,81.90234375)"/>
<path d="M0 0 C0.33 0 0.66 0 1 0 C1.14695313 0.67804688 1.29390625 1.35609375 1.4453125 2.0546875 C4.36997201 14.19034363 9.54280929 22.06458105 20 29 C26.14579714 32.69877225 31.95128932 34.7494223 39 36 C39 36.33 39 36.66 39 37 C26.13 37 13.26 37 0 37 C0 24.79 0 12.58 0 0 Z " fill="#FDFDFD" transform="translate(0,126)"/>
<path d="M0 0 C0.33 0 0.66 0 1 0 C1 10.56 1 21.12 1 32 C-10.22 32 -21.44 32 -33 32 C-29.85195672 30.42597836 -27.06267156 29.32898445 -23.75 28.25 C-14.17691598 24.7955316 -6.81785503 18.53854265 -2.1875 9.4375 C-1.09045906 6.26185517 -0.40597365 3.32898393 0 0 Z " fill="#FDFDFD" transform="translate(309,131)"/>
<path d="M0 0 C3.66295935 0.67278845 5.37978578 2.0375925 8.0625 4.5625 C8.3925 3.2425 8.7225 1.9225 9.0625 0.5625 C10.3825 0.5625 11.7025 0.5625 13.0625 0.5625 C13.0625 5.5125 13.0625 10.4625 13.0625 15.5625 C15.3725 15.5625 17.6825 15.5625 20.0625 15.5625 C20.0625 16.2225 20.0625 16.8825 20.0625 17.5625 C16.4325 17.5625 12.8025 17.5625 9.0625 17.5625 C8.7325 16.5725 8.4025 15.5825 8.0625 14.5625 C7.381875 15.243125 6.70125 15.92375 6 16.625 C3.0625 18.5625 3.0625 18.5625 -0.5625 18.625 C-3.9375 17.5625 -3.9375 17.5625 -5.875 15.4375 C-7.20342037 11.84295075 -7.41352566 9.37070525 -6.9375 5.5625 C-4.97447089 2.01394737 -4.02026542 0.76983806 0 0 Z " fill="#EEEEEE" transform="translate(126.9375,125.4375)"/>
<path d="M0 0 C0.95519531 -0.02900391 1.91039063 -0.05800781 2.89453125 -0.08789062 C9.98762152 -0.15201453 9.98762152 -0.15201453 13.859375 2.20703125 C16.81212504 5.49532106 17.08322865 7.84484854 17.04296875 12.2734375 C16.58745033 15.44384567 14.99684343 17.1317402 12.75 19.3125 C9.00636763 21.18431618 4.55807994 20.62678147 0.4375 20.6875 C-0.51318359 20.72488281 -1.46386719 20.76226562 -2.44335938 20.80078125 C-9.50280449 20.8895793 -9.50280449 20.8895793 -13.35546875 17.9140625 C-16.33906527 13.81700006 -16.77032089 11.42898875 -16.25 6.3125 C-13.8125 3.4375 -13.8125 3.4375 -11.25 1.3125 C-8.89232343 -1.04517657 -3.16251856 0.03149919 0 0 Z M-10.75 5.15234375 C-12.80022728 8.1048846 -12.83683455 9.79149269 -12.25 13.3125 C-10.80794574 15.63779277 -10.80794574 15.63779277 -8.25 17.3125 C-5.26554628 17.68555672 -2.71932635 17.82814017 0.25 17.75 C1.38888672 17.76063477 1.38888672 17.76063477 2.55078125 17.77148438 C5.8102946 17.73437958 8.32662498 17.52881817 11.25 16.03515625 C13.04161271 13.97760103 13.2909582 13.01574114 13.25 10.3125 C13.2603125 9.631875 13.270625 8.95125 13.28125 8.25 C12.86921245 6.19787301 12.86921245 6.19787301 11.25 4.58984375 C7.65192167 2.7514506 4.19722771 2.83814134 0.25 2.875 C-0.50925781 2.85501953 -1.26851562 2.83503906 -2.05078125 2.81445312 C-5.65437373 2.81760864 -7.81138188 2.98970448 -10.75 5.15234375 Z " fill="#E91319" transform="translate(91.25,81.6875)"/>
<path d="M0 0 C2.98377536 0.32356094 4.56111948 0.53987194 6.66918945 2.75 C7.38401489 3.86375 7.38401489 3.86375 8.11328125 5 C8.63857422 5.804375 9.16386719 6.60875 9.70507812 7.4375 C10.23552734 8.283125 10.76597656 9.12875 11.3125 10 C11.86228516 10.845625 12.41207031 11.69125 12.97851562 12.5625 C17 18.79704969 17 18.79704969 17 20 C15.35 20 13.7 20 12 20 C11.67 19.34 11.34 18.68 11 18 C7.95987847 17.64153791 4.94118645 17.55563467 1.8828125 17.44140625 C-1.21947827 16.96639425 -2.13367624 16.44710283 -4 14 C-4.5775 14.99 -5.155 15.98 -5.75 17 C-6.4925 17.99 -7.235 18.98 -8 20 C-9.32 20 -10.64 20 -12 20 C-10.37885498 15.20178341 -7.70723241 11.3327141 -4.875 7.1875 C-4.40707031 6.49462891 -3.93914062 5.80175781 -3.45703125 5.08789062 C-2.30887563 3.38908895 -1.15500633 1.69415136 0 0 Z " fill="#EA2429" transform="translate(149,82)"/>
<path d="M0 0 C0.80566406 0.00322266 1.61132812 0.00644531 2.44140625 0.00976562 C3.70404297 0.02233398 3.70404297 0.02233398 4.9921875 0.03515625 C6.26642578 0.04192383 6.26642578 0.04192383 7.56640625 0.04882812 C9.66669659 0.06062751 11.7669508 0.07856319 13.8671875 0.09765625 C13.5371875 1.08765625 13.2071875 2.07765625 12.8671875 3.09765625 C11.83078125 3.1234375 10.794375 3.14921875 9.7265625 3.17578125 C8.35672949 3.23207576 6.98693945 3.2894228 5.6171875 3.34765625 C4.59431641 3.36892578 4.59431641 3.36892578 3.55078125 3.390625 C-1.64400651 3.64279916 -2.16655804 4.13140179 -6.1328125 8.09765625 C0.1371875 8.09765625 6.4071875 8.09765625 12.8671875 8.09765625 C12.2071875 9.41765625 11.5471875 10.73765625 10.8671875 12.09765625 C5.2571875 12.09765625 -0.3528125 12.09765625 -6.1328125 12.09765625 C-1.70530207 16.52516668 0.29777666 16.73455816 6.1171875 16.84765625 C7.23480469 16.89212891 7.23480469 16.89212891 8.375 16.9375 C10.20515422 17.00789055 12.03617519 17.05507457 13.8671875 17.09765625 C13.5371875 18.08765625 13.2071875 19.07765625 12.8671875 20.09765625 C10.15715323 20.23345975 7.45399809 20.33210249 4.7421875 20.41015625 C3.98164063 20.45205078 3.22109375 20.49394531 2.4375 20.53710938 C-1.64993037 20.62520055 -4.33181958 20.39636131 -7.61328125 17.82421875 C-10.53827321 14.65887861 -11.19436806 13.23823959 -11.4453125 9.09765625 C-10.86717639 5.39758515 -8.7973362 3.63824862 -6.1328125 1.09765625 C-3.8362755 -0.05061225 -2.54968083 -0.0179555 0 0 Z " fill="#EA2328" transform="translate(225.1328125,81.90234375)"/>
<path d="M0 0 C3.41798296 -0.13492038 6.83065162 -0.23407458 10.25 -0.3125 C11.21808594 -0.35439453 12.18617187 -0.39628906 13.18359375 -0.43945312 C20.35563697 -0.56310904 20.35563697 -0.56310904 23.6640625 2.328125 C25 5 25 5 25.125 8.0625 C23.63911829 11.94230224 21.56639599 13.02710009 18 15 C19.65 16.65 21.3 18.3 23 20 C19.08474397 20.41243795 17.36588609 20.23644075 14.0078125 18.06640625 C13.05648437 17.24011719 12.10515625 16.41382812 11.125 15.5625 C10.15820312 14.73878906 9.19140625 13.91507813 8.1953125 13.06640625 C7.47085938 12.38449219 6.74640625 11.70257813 6 11 C6 10.67 6 10.34 6 10 C12.435 9.505 12.435 9.505 19 9 C19.33 7.68 19.66 6.36 20 5 C18.01783097 3.01783097 14.16679941 3.58949076 11.4375 3.4375 C8.983125 3.293125 6.52875 3.14875 4 3 C4 8.61 4 14.22 4 20 C2.68 20 1.36 20 0 20 C0 13.4 0 6.8 0 0 Z " fill="#EA191F" transform="translate(111,82)"/>
<path d="M0 0 C1.98828125 0.6875 1.98828125 0.6875 3.98828125 3.6875 C4.52625932 7.07959331 4.52686494 10.29497802 3.98828125 13.6875 C1.45336231 16.81887045 -0.08662268 17.51404449 -4.01171875 18.25 C-8.18205001 17.46806289 -9.57043144 16.13402326 -12.01171875 12.6875 C-12.72121834 9.84950163 -12.7032086 7.52775169 -12.01171875 4.6875 C-8.6647983 -0.60279362 -5.74900348 -0.77297526 0 0 Z " fill="#141414" transform="translate(161.01171875,126.3125)"/>
<path d="M0 0 C8.30078125 -0.390625 8.30078125 -0.390625 11 0 C13.65087538 2.59447377 13.97620113 3.73345263 14.3125 7.5 C14.02996591 10.66438177 13.78278114 12.42487168 12 15 C9.47524538 16.26237731 7.68799534 16.09856404 4.875 16.0625 C3.26625 16.041875 1.6575 16.02125 0 16 C0 10.72 0 5.44 0 0 Z " fill="#060606" transform="translate(187,127)"/>
<path d="M0 0 C0.80566406 0.00322266 1.61132812 0.00644531 2.44140625 0.00976562 C3.70404297 0.02233398 3.70404297 0.02233398 4.9921875 0.03515625 C5.84167969 0.03966797 6.69117188 0.04417969 7.56640625 0.04882812 C9.66669659 0.06062751 11.7669508 0.07856319 13.8671875 0.09765625 C13.5371875 1.08765625 13.2071875 2.07765625 12.8671875 3.09765625 C11.81917969 3.13503906 10.77117187 3.17242187 9.69140625 3.2109375 C8.31246445 3.2766014 6.93355979 3.3430486 5.5546875 3.41015625 C4.51924805 3.44399414 4.51924805 3.44399414 3.46289062 3.47851562 C0.54642925 3.63349666 -1.63367023 3.76090957 -4.08984375 5.41796875 C-5.8695134 8.28410339 -5.48808495 10.84099216 -5.1328125 14.09765625 C-1.41214778 16.5780994 1.73259224 16.54146798 6.0546875 16.72265625 C6.80427734 16.76132813 7.55386719 16.8 8.32617188 16.83984375 C10.17277949 16.93393841 12.0199494 17.01687944 13.8671875 17.09765625 C13.5371875 18.08765625 13.2071875 19.07765625 12.8671875 20.09765625 C10.1369486 20.20602295 7.41104207 20.28512319 4.6796875 20.34765625 C3.91076172 20.38117188 3.14183594 20.4146875 2.34960938 20.44921875 C-1.67534258 20.51831664 -3.63089974 20.41520628 -7.12109375 18.20703125 C-10.22600628 14.95139481 -10.46669304 12.63701585 -10.42578125 8.13671875 C-9.97026283 4.96631058 -8.37965593 3.27841605 -6.1328125 1.09765625 C-3.8362755 -0.05061225 -2.54968083 -0.0179555 0 0 Z " fill="#E9141A" transform="translate(175.1328125,81.90234375)"/>
<path d="M0 0 C1.32 0 2.64 0 4 0 C4 5.61 4 11.22 4 17 C9.94 17 15.88 17 22 17 C21.67 17.99 21.34 18.98 21 20 C14.07 20 7.14 20 0 20 C0 13.4 0 6.8 0 0 Z " fill="#E91419" transform="translate(192,82)"/>
<path d="M0 0 C3.24287636 0.54047939 4.72929914 1.14196449 7 3.5 C7 4.49 7 5.48 7 6.5 C5.68 6.5 4.36 6.5 3 6.5 C3 5.51 3 4.52 3 3.5 C1.35 3.5 -0.3 3.5 -2 3.5 C-2 6.8 -2 10.1 -2 13.5 C-0.68 13.83 0.64 14.16 2 14.5 C2.33 13.84 2.66 13.18 3 12.5 C4.32 12.5 5.64 12.5 7 12.5 C6.6875 14.375 6.6875 14.375 6 16.5 C3 18.5 3 18.5 -0.5 18.4375 C-4 17.5 -4 17.5 -5.9375 15.375 C-7.26592037 11.78045075 -7.47602566 9.30820525 -7 5.5 C-5.01304359 1.90819418 -4.09235879 0.6820598 0 0 Z " fill="#131313" transform="translate(127,125.5)"/>
<path d="M0 0 C0.99 0 1.98 0 3 0 C3.05398987 2.27057377 3.09278742 4.54151288 3.125 6.8125 C3.14820313 8.07707031 3.17140625 9.34164062 3.1953125 10.64453125 C3 14 3 14 1 17 C-5.83285889 18.54290362 -5.83285889 18.54290362 -9.2421875 16.95703125 C-11.87824447 14.02222115 -11.39170031 11.67383332 -11.25 7.8125 C-11.21390625 6.54019531 -11.1778125 5.26789063 -11.140625 3.95703125 C-11.09421875 2.98121094 -11.0478125 2.00539062 -11 1 C-10.01 1 -9.02 1 -8 1 C-7.67 5.62 -7.34 10.24 -7 15 C-5.02 14.34 -3.04 13.68 -1 13 C-0.67 8.71 -0.34 4.42 0 0 Z " fill="#0F0F0F" transform="translate(180,126)"/>
<path d="M0 0 C2.5 0.25 2.5 0.25 4.5 2.25 C4.81537716 6.58643601 4.94897847 8.57653229 2.5 12.25 C0 12.5625 0 12.5625 -2.5 12.25 C-4.5 10.25 -4.5 10.25 -4.765625 8.375 C-4.76046875 7.67375 -4.7553125 6.9725 -4.75 6.25 C-4.75515625 5.54875 -4.7603125 4.8475 -4.765625 4.125 C-4.31971142 0.97737476 -3.03899237 0.30389924 0 0 Z " fill="#F0F0F0" transform="translate(157.5,128.75)"/>
<path d="M0 0 C0.66 0 1.32 0 2 0 C1.25 4.75 1.25 4.75 -1 7 C-1.34361606 10.95158471 -1.08901197 13.60535554 1 17 C0.01 17.66 -0.98 18.32 -2 19 C-4.52724006 15.76197367 -5.91647961 13.52896245 -6.5625 9.4375 C-5.85705422 5.12644246 -4.30686702 3.74227997 -1 1 C-0.67 0.67 -0.34 0.34 0 0 Z " fill="#EA252B" transform="translate(81,82)"/>
<path d="M0 0 C1.25393555 0.02707031 1.25393555 0.02707031 2.53320312 0.0546875 C4.58513228 0.10158874 6.63646756 0.17332589 8.6875 0.25 C8.3575 1.24 8.0275 2.23 7.6875 3.25 C6.15029297 3.30607422 6.15029297 3.30607422 4.58203125 3.36328125 C3.22131938 3.42897079 1.86064389 3.49541709 0.5 3.5625 C-0.17353516 3.58505859 -0.84707031 3.60761719 -1.54101562 3.63085938 C-5.96781167 3.86839477 -8.6869163 4.74493418 -12.3125 7.25 C-13.3025 7.58 -14.2925 7.91 -15.3125 8.25 C-15.00637024 5.39278889 -14.32073412 4.25888763 -12.34375 2.125 C-8.15158009 -0.46809479 -4.81825426 -0.19774998 0 0 Z " fill="#E90F17" transform="translate(230.3125,81.75)"/>
<path d="M0 0 C1.65 0 3.3 0 5 0 C7 2 7 2 7.3125 5.4375 C7 9 7 9 5.75 10.9375 C4 12 4 12 0 12 C0 8.04 0 4.08 0 0 Z " fill="#EDEDED" transform="translate(190,129)"/>
<path d="M0 0 C5.61 0.33 11.22 0.66 17 1 C17 1.33 17 1.66 17 2 C12.38 2 7.76 2 3 2 C3 7.61 3 13.22 3 19 C2.01 18.67 1.02 18.34 0 18 C0 12.06 0 6.12 0 0 Z " fill="#EA272D" transform="translate(112,83)"/>
<path d="M0 0 C0.99 0 1.98 0 3 0 C3 4.95 3 9.9 3 15 C5.31 15 7.62 15 10 15 C10 15.66 10 16.32 10 17 C6.7 17 3.4 17 0 17 C0 11.39 0 5.78 0 0 Z " fill="#040404" transform="translate(137,126)"/>
<path d="M0 0 C0.99 0 1.98 0 3 0 C3.33 4.62 3.66 9.24 4 14 C5.32 14.33 6.64 14.66 8 15 C7 16 7 16 4.5625 16.1875 C2 16 2 16 0 14 C-0.1953125 10.7421875 -0.1953125 10.7421875 -0.125 6.875 C-0.10695312 5.59367188 -0.08890625 4.31234375 -0.0703125 2.9921875 C-0.04710937 2.00476563 -0.02390625 1.01734375 0 0 Z " fill="#040404" transform="translate(169,127)"/>
<path d="M0 0 C5.94 0 11.88 0 18 0 C17.67 0.99 17.34 1.98 17 3 C11.06 3 5.12 3 -1 3 C-0.67 2.01 -0.34 1.02 0 0 Z " fill="#E90D14" transform="translate(83,82)"/>
<path d="M0 0 C2.47193291 2.96631949 4.25618453 5.51236907 6 9 C2.37 9 -1.26 9 -5 9 C-3.47426795 5.18566987 -2.47253678 3.03447696 0 0 Z " fill="#FEF5F5" transform="translate(151,86)"/>
<path d="M0 0 C4.95 0 9.9 0 15 0 C14.67 0.99 14.34 1.98 14 3 C8.72 3 3.44 3 -2 3 C-1.34 2.67 -0.68 2.34 0 2 C0 1.34 0 0.68 0 0 Z " fill="#E90C13" transform="translate(174,99)"/>
<path d="M0 0 C0.33 0 0.66 0 1 0 C1.268125 1.11375 1.53625 2.2275 1.8125 3.375 C2.65809019 7.21840951 2.65809019 7.21840951 6 9 C6 9.66 6 10.32 6 11 C5.01 11.33 4.02 11.66 3 12 C-0.23014784 9.84656811 -1.75686537 8.72940389 -3 5 C-2.19851251 3.05353038 -1.4949015 1.4949015 0 0 Z " fill="#EA272C" transform="translate(168,90)"/>
<path d="M0 0 C2.65529207 1.39752214 4.63508664 2.50816026 6.4375 4.9375 C7 7 7 7 6.25 9.1875 C5 11 5 11 3 12 C2.896875 11.05125 2.79375 10.1025 2.6875 9.125 C2.31460705 5.70892499 2.31460705 5.70892499 -1 4 C-0.67 2.68 -0.34 1.36 0 0 Z " fill="#EB2B30" transform="translate(101,82)"/>
<path d="M0 0 C1.32 0 2.64 0 4 0 C3.6875 1.875 3.6875 1.875 3 4 C-0.22791555 6.1519437 -1.28400809 6.20086443 -5 6 C-4.360625 5.38125 -3.72125 4.7625 -3.0625 4.125 C-0.96116416 2.17402388 -0.96116416 2.17402388 0 0 Z " fill="#1F1F1F" transform="translate(130,138)"/>
<path d="M0 0 C0.33 1.32 0.66 2.64 1 4 C-1.38573379 5.89213369 -3.07175348 7.02391783 -6 8 C-5.65120368 4.74456771 -4.97866739 3.98126893 -2.4375 1.75 C-1.633125 1.1725 -0.82875 0.595 0 0 Z " fill="#EA191E" transform="translate(221,82)"/>
<path d="M0 0 C2.0625 0.4375 2.0625 0.4375 4 1 C3.67 2.32 3.34 3.64 3 5 C2.01 5 1.02 5 0 5 C-0.5625 3.0625 -0.5625 3.0625 -1 1 C-0.67 0.67 -0.34 0.34 0 0 Z " fill="#F49FA1" transform="translate(242,81)"/>
<path d="M0 0 C0.66 0.66 1.32 1.32 2 2 C0.75 4 0.75 4 -1 6 C-2.32 6 -3.64 6 -5 6 C-3.86695008 2.60085025 -2.87481525 1.94745549 0 0 Z " fill="#EA191E" transform="translate(142,96)"/>
<path d="M0 0 C0.66 1.32 1.32 2.64 2 4 C1.01 4.66 0.02 5.32 -1 6 C-1.99 5.34 -2.98 4.68 -4 4 C-2.68 2.68 -1.36 1.36 0 0 Z " fill="#EB2F34" transform="translate(133,89)"/>
</svg>
