<?xml version="1.0" encoding="UTF-8"?>
<svg version="1.1" xmlns="http://www.w3.org/2000/svg" width="919" height="468">
<path d="M0 0 C243.54 0 487.08 0 738 0 C737.34 1.32 736.68 2.64 736 4 C735.34 4 734.68 4 734 4 C734 4.66 734 5.32 734 6 C733.34 6 732.68 6 732 6 C731.731875 6.639375 731.46375 7.27875 731.1875 7.9375 C730 10 730 10 727 11 C727 11.66 727 12.32 727 13 C726.34 13 725.68 13 725 13 C724.67 13.99 724.34 14.98 724 16 C723.34 16 722.68 16 722 16 C722 16.66 722 17.32 722 18 C721.34 18 720.68 18 720 18 C719.67 18.99 719.34 19.98 719 21 C718.34 21 717.68 21 717 21 C717 21.66 717 22.32 717 23 C716.34 23 715.68 23 715 23 C715 23.66 715 24.32 715 25 C714.34 25 713.68 25 713 25 C712.67 25.99 712.34 26.98 712 28 C711.34 28 710.68 28 710 28 C710 28.66 710 29.32 710 30 C709.34 30 708.68 30 708 30 C707.67 30.99 707.34 31.98 707 33 C706.34 33 705.68 33 705 33 C705 33.66 705 34.32 705 35 C704.34 35 703.68 35 703 35 C703 35.66 703 36.32 703 37 C702.34 37 701.68 37 701 37 C700.67 37.99 700.34 38.98 700 40 C699.34 40 698.68 40 698 40 C698 40.66 698 41.32 698 42 C697.34 42 696.68 42 696 42 C695.67 42.99 695.34 43.98 695 45 C694.34 45 693.68 45 693 45 C693 45.66 693 46.32 693 47 C692.34 47 691.68 47 691 47 C691 47.66 691 48.32 691 49 C690.34 49 689.68 49 689 49 C688.67 49.99 688.34 50.98 688 52 C687.34 52 686.68 52 686 52 C686 52.66 686 53.32 686 54 C685.34 54 684.68 54 684 54 C683.67 54.99 683.34 55.98 683 57 C682.34 57 681.68 57 681 57 C681 57.66 681 58.32 681 59 C680.34 59 679.68 59 679 59 C678.731875 59.639375 678.46375 60.27875 678.1875 60.9375 C677 63 677 63 674 64 C674 64.66 674 65.32 674 66 C673.34 66 672.68 66 672 66 C671.67 66.99 671.34 67.98 671 69 C670.34 69 669.68 69 669 69 C669 69.66 669 70.32 669 71 C668.34 71 667.68 71 667 71 C666.67 71.99 666.34 72.98 666 74 C665.34 74 664.68 74 664 74 C664 74.66 664 75.32 664 76 C663.34 76 662.68 76 662 76 C662 76.66 662 77.32 662 78 C661.34 78 660.68 78 660 78 C659.67 78.99 659.34 79.98 659 81 C658.34 81 657.68 81 657 81 C657 81.66 657 82.32 657 83 C656.34 83 655.68 83 655 83 C654.67 83.99 654.34 84.98 654 86 C653.34 86 652.68 86 652 86 C652 86.66 652 87.32 652 88 C651.34 88 650.68 88 650 88 C650 88.66 650 89.32 650 90 C649.34 90 648.68 90 648 90 C647.67 90.99 647.34 91.98 647 93 C646.34 93 645.68 93 645 93 C645 93.66 645 94.32 645 95 C644.34 95 643.68 95 643 95 C642.67 95.99 642.34 96.98 642 98 C641.34 98 640.68 98 640 98 C640 98.66 640 99.32 640 100 C639.34 100 638.68 100 638 100 C638 100.66 638 101.32 638 102 C637.34 102 636.68 102 636 102 C635.67 102.99 635.34 103.98 635 105 C634.34 105 633.68 105 633 105 C633 105.66 633 106.32 633 107 C632.34 107 631.68 107 631 107 C630.67 107.99 630.34 108.98 630 110 C629.34 110 628.68 110 628 110 C628 110.66 628 111.32 628 112 C627.34 112 626.68 112 626 112 C626 112.66 626 113.32 626 114 C625.34 114 624.68 114 624 114 C623.67 114.99 623.34 115.98 623 117 C622.34 117 621.68 117 621 117 C621 117.66 621 118.32 621 119 C620.34 119 619.68 119 619 119 C618.67 119.99 618.34 120.98 618 122 C617.34 122 616.68 122 616 122 C616 122.66 616 123.32 616 124 C615.34 124 614.68 124 614 124 C614 124.66 614 125.32 614 126 C612.625 127.625 612.625 127.625 611 129 C610.34 129 609.68 129 609 129 C609 129.66 609 130.32 609 131 C608.34 131 607.68 131 607 131 C606.67 131.99 606.34 132.98 606 134 C605.34 134 604.68 134 604 134 C604 134.66 604 135.32 604 136 C603.34 136 602.68 136 602 136 C602 136.66 602 137.32 602 138 C600.625 139.625 600.625 139.625 599 141 C598.34 141 597.68 141 597 141 C597 141.66 597 142.32 597 143 C596.34 143 595.68 143 595 143 C594.67 143.99 594.34 144.98 594 146 C593.34 146 592.68 146 592 146 C592 146.66 592 147.32 592 148 C591.34 148 590.68 148 590 148 C589.67 148.99 589.34 149.98 589 151 C588.34 151 587.68 151 587 151 C587 151.66 587 152.32 587 153 C586.34 153 585.68 153 585 153 C585 153.66 585 154.32 585 155 C583.625 156.625 583.625 156.625 582 158 C581.34 158 580.68 158 580 158 C580 158.66 580 159.32 580 160 C579.34 160 578.68 160 578 160 C577.67 160.99 577.34 161.98 577 163 C575.59179688 164.38696289 575.59179688 164.38696289 573.71875 165.91015625 C567.63739191 171.06980851 562.11278512 176.78050001 556.5 182.4375 C555.38044368 183.5620833 554.26065371 184.68643405 553.140625 185.81054688 C550.42438466 188.53769344 547.71131708 191.26795907 545 194 C544.01 193.34 543.02 192.68 542 192 C542.66975826 188.79104834 543.84612136 186.17367753 545.3125 183.25 C548.6343054 176.10571127 550.30556185 168.65819597 552 161 C552.17724609 160.19916992 552.35449219 159.39833984 552.53710938 158.57324219 C554.84652703 145.73502376 553.40174459 131.47795108 550 119 C549.58234375 117.40091797 549.58234375 117.40091797 549.15625 115.76953125 C547.24869925 109.28221425 544.51514675 104.31588381 540.390625 98.9609375 C539 97 539 97 539 95 C538.34 95 537.68 95 537 95 C535.31267723 93.01739574 533.64633943 91.0167658 532 89 C531.34 88.67 530.68 88.34 530 88 C530 87.34 530 86.68 530 86 C529.43925781 85.72671875 528.87851562 85.4534375 528.30078125 85.171875 C525.88134721 83.93956564 523.54485268 82.59705867 521.1875 81.25 C490.18918911 64.5742071 457.13661596 66.23395529 422.875 66.1875 C399.176875 66.0946875 399.176875 66.0946875 375 66 C375 124.74 375 183.48 375 244 C373.68 244.33 372.36 244.66 371 245 C367.28500258 237.24309312 364.28638634 229.40236206 361.5625 221.25 C358.71984494 212.88215124 355.74976207 204.64531222 352.38671875 196.47265625 C350.5809126 191.9505107 348.98851398 187.3665826 347.39428711 182.76660156 C345.33510912 176.86189034 343.12174683 171.02312517 340.875 165.1875 C338.350564 158.62975611 335.95781214 152.06464647 333.80078125 145.375 C332.7160044 142.1577106 331.36701981 139.10686321 330 136 C328.98935536 133.04549451 328.02518792 130.0784212 327.0703125 127.10546875 C325.56858824 122.46998106 324.04753554 117.92557879 322 113.5 C320.52354664 110.29723195 319.33110733 107.10712275 318.25 103.75 C316.02584279 96.86400928 313.42292465 90.13416771 310.81738281 83.38574219 C306 70.88470347 306 70.88470347 306 66 C284.88 66.33 263.76 66.66 242 67 C239.525 73.93 239.525 73.93 237 81 C235.86845368 83.94495316 234.72865446 86.88173293 233.5625 89.8125 C231.25647779 95.67049978 229.0639228 101.55247055 227 107.5 C224.6827874 114.17196085 222.19075805 120.75997178 219.60766602 127.33325195 C217.41133889 132.92373757 215.29212527 138.53922231 213.20141602 144.16992188 C211.52291145 148.66681514 209.74956912 153.1180097 207.9375 157.5625 C205.95144366 162.44345348 204.18309834 167.35961885 202.5625 172.375 C200.55339987 178.55684656 198.19529965 184.50856962 195.66748047 190.49438477 C193.19084031 196.40734623 191.01964462 202.40068192 188.95336914 208.46826172 C187.82435244 211.76564407 186.67650379 214.93821608 185 218 C184.34 218 183.68 218 183 218 C181.82538445 214.89878289 180.66169544 211.79357759 179.5 208.6875 C179.16613281 207.80642578 178.83226562 206.92535156 178.48828125 206.01757812 C178.01455078 204.74624023 178.01455078 204.74624023 177.53125 203.44921875 C177.23798828 202.66893311 176.94472656 201.88864746 176.64257812 201.0847168 C176 199 176 199 176 196 C175.34 196 174.68 196 174 196 C173.67 194.68 173.34 193.36 173 192 C172.34 192 171.68 192 171 192 C171 191.01 171 190.02 171 189 C170.360625 188.731875 169.72125 188.46375 169.0625 188.1875 C167 187 167 187 166 184 C165.34 184 164.68 184 164 184 C164 183.34 164 182.68 164 182 C163.26007813 181.73316406 162.52015625 181.46632812 161.7578125 181.19140625 C159.05744407 180.02481649 157.18289034 178.73867641 154.875 176.9375 C144.01151477 169.1824934 131.2406584 164.0821639 118.56640625 160.1171875 C114.88094927 158.962707 111.25681258 157.68789054 107.625 156.375 C103.8900309 155.0267264 100.15664476 153.71067045 96.375 152.5 C87.74657851 149.63992733 79.43247583 146.28849242 72 141 C72 140.34 72 139.68 72 139 C71.1028125 138.5978125 71.1028125 138.5978125 70.1875 138.1875 C66.68911463 136.28837651 65.26654546 134.79963639 64 131 C63.90774789 129.50225982 63.8699981 128.00057026 63.875 126.5 C63.87113281 125.33984375 63.87113281 125.33984375 63.8671875 124.15625 C64 122 64 122 65 119 C65.66 119 66.32 119 67 119 C67 118.34 67 117.68 67 117 C68.5390625 115.78125 68.5390625 115.78125 70.625 114.5 C71.29789062 114.0771875 71.97078125 113.654375 72.6640625 113.21875 C79.96777141 109.40811926 87.18969938 109.66114126 95.20996094 109.68432617 C97.46600217 109.68745288 99.72068619 109.66411595 101.9765625 109.63867188 C111.40173761 109.59742795 119.84623234 110.57810683 129 113 C129.72364746 113.18377197 130.44729492 113.36754395 131.19287109 113.55688477 C136.33847052 114.92304212 141.36489376 116.4198699 145.9375 119.1875 C149.11726553 121.06940205 151.38712635 121.50253896 155 122 C160.01311947 113.47416654 164.92869958 104.89436131 169.82324219 96.30004883 C170.31985352 95.42888428 170.81646484 94.55771973 171.328125 93.66015625 C171.79283203 92.83918457 172.25753906 92.01821289 172.73632812 91.17236328 C173.73724993 89.45169052 174.81664233 87.77669634 175.921875 86.12109375 C177.19074977 84.09470959 177.19074977 84.09470959 176.80517578 81.99023438 C176.17268763 79.89288455 176.17268763 79.89288455 174.35205078 78.89086914 C173.64032715 78.60848389 172.92860352 78.32609863 172.1953125 78.03515625 C171.39407959 77.71248779 170.59284668 77.38981934 169.76733398 77.05737305 C168.89536377 76.72906494 168.02339355 76.40075684 167.125 76.0625 C165.77547241 75.54200073 165.77547241 75.54200073 164.39868164 75.01098633 C149.28271506 69.328461 133.95482478 66.20762962 118 64 C116.90349121 63.82654053 115.80698242 63.65308105 114.67724609 63.47436523 C109.10055009 62.75497071 103.55774537 62.81403119 97.94140625 62.81469727 C95.90082395 62.81252746 93.86079836 62.79437533 91.8203125 62.77539062 C71.08721284 62.68408723 51.04311906 67.49827147 33.7265625 79.21484375 C31 81 31 81 29 81 C29 81.66 29 82.32 29 83 C28.01 83 27.02 83 26 83 C25.731875 83.639375 25.46375 84.27875 25.1875 84.9375 C24 87 24 87 21 88 C21 88.66 21 89.32 21 90 C20.34 90 19.68 90 19 90 C18.34 91.65 17.68 93.3 17 95 C16.34 95 15.68 95 15 95 C14.5978125 96.0828125 14.5978125 96.0828125 14.1875 97.1875 C13 100 13 100 11.6171875 102.1171875 C9.49246498 105.90473635 8.25437544 109.81173936 6.9375 113.9375 C6.68162109 114.72318359 6.42574219 115.50886719 6.16210938 116.31835938 C5.66543891 117.84412082 5.17103859 119.3706236 4.67919922 120.89794922 C3.80457097 123.60483249 2.9047533 126.30305595 2 129 C1.34 129 0.68 129 0 129 C0 86.43 0 43.86 0 0 Z " fill="#009EE2" transform="translate(4,30)"/>
<path d="M0 0 C2 1 2 1 2.65087891 2.92675781 C2.84085449 3.76045898 3.03083008 4.59416016 3.2265625 5.453125 C8.48885269 27.27144827 17.83144388 41.58507599 37.08203125 53.68359375 C48.34735031 60.48966588 60.56188055 64.85973864 73 69 C73.68723145 69.22961426 74.37446289 69.45922852 75.08251953 69.69580078 C78.31156219 70.77368928 81.54223457 71.84656988 84.7734375 72.91796875 C88.55779294 74.18705647 92.29161763 75.5252379 96 77 C96.95648438 77.36867188 97.91296875 77.73734375 98.8984375 78.1171875 C114.00710624 84.12334964 114.00710624 84.12334964 118 91 C119.80357809 95.59092605 119.55768409 101.00163202 118.25 105.6875 C114.14767492 113.27680139 108.00070599 116.333098 100 119 C95.44717517 119.23073519 90.89168384 119.22840708 86.33374023 119.24023438 C84.10165564 119.24983164 81.87053613 119.28081075 79.63867188 119.3125 C70.98312817 119.37752157 63.31886856 118.65391053 55 116 C54.23840576 115.77022461 53.47681152 115.54044922 52.69213867 115.30371094 C50.63154324 114.66094337 48.59687123 113.97117527 46.5625 113.25 C45.8516626 112.99976074 45.1408252 112.74952148 44.40844727 112.49169922 C37.55226317 109.98919586 31.28652677 106.69538443 25 103 C24.7421875 103.85464844 24.484375 104.70929688 24.21875 105.58984375 C22.94246255 109.16099421 21.34023178 112.24782021 19.5 115.5625 C14.24537918 125.16906929 9.6408781 135.08656872 5 145 C20.48554507 153.11343718 35.86531877 159.37760805 53 163 C53.67208496 163.15098145 54.34416992 163.30196289 55.03662109 163.45751953 C81.69363518 169.28972441 116.94720049 169.56487161 140.875 154.75 C141.47183594 154.34910156 142.06867188 153.94820312 142.68359375 153.53515625 C146.03744656 151.3124511 149.48817927 149.2578993 152.9375 147.1875 C153.61345215 146.77790039 154.2894043 146.36830078 154.98583984 145.94628906 C159.88176896 143 159.88176896 143 161 143 C160.36266456 150.01068985 158.37188634 154.88434097 156 162 C187.68 162.495 187.68 162.495 220 163 C220.66 160.03 221.32 157.06 222 154 C222.75197181 151.52923549 223.54239845 149.0697727 224.375 146.625 C224.77460938 145.44164062 225.17421875 144.25828125 225.5859375 143.0390625 C227.32912681 138.0040587 229.16843917 133.00337173 231 128 C231.57927246 128.15146484 232.15854492 128.30292969 232.75537109 128.45898438 C259.82667487 135.28324168 287.03920242 135.4385529 314 128 C316.96680999 134.26305456 319.24968032 140.53851352 321.1875 147.1875 C321.44724609 148.05052734 321.70699219 148.91355469 321.97460938 149.80273438 C323.29080306 154.24786397 324.23089773 158.38538637 325 163 C361.3 163 397.6 163 435 163 C435 138.91 435 114.82 435 90 C454.9375 89.6875 454.9375 89.6875 461.11303711 89.61206055 C479.99190344 89.28929487 498.03619129 86.79604896 515 78 C515.99 78 516.98 78 518 78 C518 77.34 518 76.68 518 76 C524.4 71.93846154 524.4 71.93846154 527.4375 72.25 C528.2109375 72.62125 528.2109375 72.62125 529 73 C528.13396834 77.53452292 525.51097311 79.90463293 522.31860352 83.05371094 C521.72670227 83.64926285 521.13480103 84.24481476 520.52496338 84.8584137 C518.56694001 86.824542 516.59826697 88.77960776 514.62890625 90.734375 C513.26698064 92.09578211 511.90557275 93.45770732 510.54466248 94.82012939 C507.69194076 97.6727614 504.83411951 100.52015253 501.97241211 103.36376953 C498.29719469 107.01626772 494.63318683 110.6797695 490.97268772 114.34701157 C488.16361054 117.15942296 485.34958319 119.96683686 482.53391838 122.77265167 C481.18053492 124.12217581 479.82850956 125.47306329 478.47784615 126.82530975 C476.59371046 128.70981454 474.70323746 130.58771335 472.81079102 132.46386719 C471.96834084 133.31003349 471.96834084 133.31003349 471.10887146 134.17329407 C467.22874208 138 467.22874208 138 465 138 C464.67 138.99 464.34 139.98 464 141 C463.34 141 462.68 141 462 141 C462 141.66 462 142.32 462 143 C461.34 143 460.68 143 460 143 C459.67 143.99 459.34 144.98 459 146 C458.34 146 457.68 146 457 146 C457 146.66 457 147.32 457 148 C456.34 148 455.68 148 455 148 C454.731875 148.639375 454.46375 149.27875 454.1875 149.9375 C453 152 453 152 450 153 C450 153.66 450 154.32 450 155 C449.34 155 448.68 155 448 155 C447.67 155.99 447.34 156.98 447 158 C446.34 158 445.68 158 445 158 C445 158.66 445 159.32 445 160 C444.34 160 443.68 160 443 160 C442.6747937 160.80123291 442.6747937 160.80123291 442.34301758 161.61865234 C440.51062709 164.86772284 438.0617527 167.41204059 435.51171875 170.1015625 C434.91268234 170.73792633 434.31364594 171.37429016 433.69645691 172.02993774 C424.08934092 182.15427516 414.18834278 191.99868096 404.3190918 201.86621094 C401.3641058 204.8210937 398.41615785 207.78289865 395.46974659 210.74632835 C393.18352416 213.04363212 390.8928091 215.33641435 388.60077477 217.62791824 C387.51030422 218.71956683 386.4214502 219.81283273 385.33426857 220.90775681 C383.82754838 222.42423483 382.31467408 223.93429421 380.80004883 225.44287109 C379.94292801 226.30141693 379.08580719 227.15996277 378.20271301 228.04452515 C374.56603824 231.27301021 371.48736169 231.12461837 366.80557728 231.12304783 C365.50029758 231.12503888 364.19501789 231.12702993 362.85018426 231.12908131 C361.39302733 231.12622806 359.93587057 231.12328245 358.47871399 231.12025452 C356.93757411 231.12069033 355.3964343 231.12156541 353.85529488 231.12284368 C349.60927649 231.12508674 345.36328317 231.12106991 341.11726797 231.11606562 C336.54263583 231.11175862 331.96800518 231.11320772 327.39337158 231.1139679 C319.46382116 231.11449297 311.53427896 231.11134787 303.60473061 231.10573006 C292.13984761 231.09761285 280.67496859 231.09499961 269.21008303 231.09374207 C250.61034933 231.09155189 232.01062 231.08489275 213.41088867 231.07543945 C195.33992535 231.06626444 177.26896322 231.0591955 159.19799805 231.05493164 C158.07327341 231.05466364 156.94854878 231.05439565 155.78974158 231.05411953 C146.99402922 231.05204018 138.19831685 231.05008323 129.40260446 231.04816496 C86.26839896 231.03872642 43.13420441 231.01860926 0 231 C0 154.77 0 78.54 0 0 Z " fill="#009FE2" transform="translate(4,165)"/>
<path d="M0 0 C11.1375 -0.061875 22.275 -0.12375 33.75 -0.1875 C37.24303711 -0.21481201 40.73607422 -0.24212402 44.33496094 -0.27026367 C48.66064453 -0.28381348 48.66064453 -0.28381348 50.69732666 -0.28633118 C52.09432864 -0.29088321 53.49132021 -0.30131812 54.88824463 -0.31672668 C67.62628697 -0.44998439 78.53135494 1.29463869 90 7 C90 7.66 90 8.32 90 9 C90.53625 9.20625 91.0725 9.4125 91.625 9.625 C94.91978009 11.53250426 97.59363628 14.04819384 100 17 C100 17.66 100 18.32 100 19 C100.66 19 101.32 19 102 19 C102.82065069 20.87144695 103.6311584 22.74734336 104.4375 24.625 C104.88996094 25.66914063 105.34242188 26.71328125 105.80859375 27.7890625 C109.70008643 38.27695424 109.46204893 52.06994829 104.96484375 62.37109375 C100.20957286 71.43821799 94.34444977 77.58693181 85 82 C82.19140625 82.6640625 82.19140625 82.6640625 80 83 C82.12951298 86.80855205 84.55284477 89.9126008 87.5 93.125 C88.2734375 93.97320312 89.046875 94.82140625 89.84375 95.6953125 C91.11944546 97.05882757 92.42275346 98.39864909 93.78125 99.6796875 C95 101 95 101 95 103 C95.66 103 96.32 103 97 103 C97.2475 103.78375 97.495 104.5675 97.75 105.375 C98.69267268 108.08535676 98.69267268 108.08535676 100.71875 108.76953125 C104.13465698 110.61201532 106.26616589 113.37557804 108.75 116.3125 C109.25660156 116.88162109 109.76320313 117.45074219 110.28515625 118.03710938 C113.272543 121.5438666 114.28074605 123.44755763 114 128 C109.62627273 128.27475092 105.25726819 128.4727289 100.87744141 128.60424805 C99.39282693 128.65912053 97.90879466 128.73386328 96.42626953 128.82983398 C83.48401721 129.6458155 83.48401721 129.6458155 78.72949219 125.57275391 C72 118.75940845 72 118.75940845 72 115 C71.34 115 70.68 115 70 115 C66 110.52941176 66 110.52941176 66 108 C64.515 107.505 64.515 107.505 63 107 C61.39187335 105.26773725 59.85802684 103.4654991 58.375 101.625 C57.57835937 100.64789063 56.78171875 99.67078125 55.9609375 98.6640625 C54 96 54 96 53 93 C52.34 93 51.68 93 51 93 C51 92.34 51 91.68 51 91 C50.34 91 49.68 91 49 91 C48.34 90.01 47.68 89.02 47 88 C40.4 87.67 33.8 87.34 27 87 C27 100.53 27 114.06 27 128 C18.09 128 9.18 128 0 128 C0 85.76 0 43.52 0 0 Z M27 26 C27 37.88 27 49.76 27 62 C32.2658008 62.06915205 37.53000412 62.12879947 42.79589844 62.16479492 C44.58436443 62.17981184 46.37279403 62.20023158 48.16113281 62.22631836 C50.74293031 62.26301615 53.32423779 62.27979745 55.90625 62.29296875 C57.09112 62.31619453 57.09112 62.31619453 58.29992676 62.33988953 C63.83772918 62.34154021 67.91187633 61.19691396 73 59 C73 58.34 73 57.68 73 57 C73.598125 56.773125 74.19625 56.54625 74.8125 56.3125 C77.66427601 54.6014344 78.52032612 52.96766054 80 50 C80.8246573 44.47999662 80.74825056 39.5519271 78.3125 34.5 C74.26879344 30.12842534 70.21976809 26.37190729 64.04916382 25.82806396 C61.69026991 25.76888436 59.33992163 25.77524658 56.98046875 25.8046875 C55.69261223 25.80893234 55.69261223 25.80893234 54.3787384 25.81326294 C51.64818125 25.8244193 48.9179573 25.84951541 46.1875 25.875 C44.33138496 25.88503568 42.47526476 25.8941605 40.61914062 25.90234375 C36.07919678 25.92263854 31.53996948 25.96179549 27 26 Z " fill="#009EE1" transform="translate(692,268)"/>
<path d="M0 0 C32.01 0 64.02 0 97 0 C97 8.91 97 17.82 97 27 C73.9 27 50.8 27 27 27 C27 34.92 27 42.84 27 51 C49.44 51 71.88 51 95 51 C95 59.58 95 68.16 95 77 C72.56 77 50.12 77 27 77 C27 84.92 27 92.84 27 101 C50.1 101 73.2 101 97 101 C97 109.91 97 118.82 97 128 C64.99 128 32.98 128 0 128 C0 85.76 0 43.52 0 0 Z " fill="#009FE2" transform="translate(581,268)"/>
<path d="M0 0 C11.323125 -0.061875 22.64625 -0.12375 34.3125 -0.1875 C37.86684814 -0.21481201 41.42119629 -0.24212402 45.08325195 -0.27026367 C49.47692871 -0.28381348 49.47692871 -0.28381348 51.54411316 -0.28633118 C52.96532523 -0.29089021 54.38652687 -0.30134046 55.80766296 -0.31672668 C70.20294871 -0.46457354 85.13273033 1.49497265 96 12 C96 12.66 96 13.32 96 14 C96.66 14 97.32 14 98 14 C105.95603262 23.46122798 108.84238112 33.79767334 108.625 46 C108.64433594 47.08539063 108.66367187 48.17078125 108.68359375 49.2890625 C108.61235286 61.22903563 104.22492228 71.36211091 96 80 C85.44360875 90.00800729 72.44241816 92.18416875 58.46875 92.09765625 C57.15396667 92.09553383 57.15396667 92.09553383 55.81262207 92.09336853 C53.04171179 92.08781768 50.27088543 92.07527461 47.5 92.0625 C45.60937618 92.05747864 43.71875107 92.05291685 41.828125 92.04882812 C37.21869247 92.03871972 32.60943903 92.01913513 28 92 C28 103.88 28 115.76 28 128 C18.76 128 9.52 128 0 128 C0 85.76 0 43.52 0 0 Z M28 26 C28 39.53 28 53.06 28 67 C33.40375 67.061875 38.8075 67.12375 44.375 67.1875 C46.05899902 67.21481201 47.74299805 67.24212402 49.47802734 67.27026367 C58.6039531 67.3561863 66.6419788 66.97667844 74.8125 62.4375 C78.97066786 57.80411296 81.64796545 52.5522505 82.5 46.375 C81.88508592 42.22432993 80.62752367 38.86536872 79 35 C78.34 35 77.68 35 77 35 C76.7525 34.401875 76.505 33.80375 76.25 33.1875 C74.00833055 29.26457847 71.69119688 28.20495442 67.37890625 26.92626953 C63.06119857 25.89385385 58.98496564 25.74138124 54.5625 25.8046875 C53.88251953 25.80670166 53.20253906 25.80871582 52.50195312 25.81079102 C50.00123185 25.82112688 47.50060797 25.84904769 45 25.875 C39.39 25.91625 33.78 25.9575 28 26 Z " fill="#009FE2" transform="translate(811,268)"/>
<path d="M0 0 C40.33333333 0 40.33333333 0 51 8 C51 8.66 51 9.32 51 10 C51.5775 10.185625 52.155 10.37125 52.75 10.5625 C57.08195179 13.33013586 58.90687594 18.1419796 60.25 22.9375 C62.30227424 32.60722458 60.68249439 42.82598339 55.75 51.4375 C51.14201057 58.08735301 44.07769222 61.8139697 36.32421875 63.625 C24.08345121 65.77722286 12.73294034 65 0 65 C0 43.55 0 22.1 0 0 Z " fill="#009EE1" transform="translate(439,142)"/>
<path d="M0 0 C0.66 0 1.32 0 2 0 C4.57255119 5.40235749 6.16752161 10.90664854 7.76953125 16.6640625 C9.24539187 21.92517446 10.84276537 27.14892796 12.4375 32.375 C12.74196045 33.37313721 13.0464209 34.37127441 13.36010742 35.3996582 C15.07318767 41.0023144 16.80600401 46.5983211 18.5625 52.1875 C20.50427894 58.38824741 22.42252451 64.59575321 24.3125 70.8125 C24.5794165 71.67963623 24.84633301 72.54677246 25.12133789 73.44018555 C25.48859985 74.65508667 25.48859985 74.65508667 25.86328125 75.89453125 C26.08282471 76.61487549 26.30236816 77.33521973 26.52856445 78.07739258 C27 80 27 80 27 83 C19.00694581 87.24892174 10.57119148 87.3394366 1.6875 87.3125 C0.63626953 87.32861328 -0.41496094 87.34472656 -1.49804688 87.36132812 C-9.45916118 87.36622125 -17.76766889 86.61616556 -25 83 C-22.90907269 71.05970457 -19.315541 59.68860897 -15.21191406 48.31591797 C-13.24810729 42.82939349 -11.61526114 37.29443056 -10.06640625 31.67578125 C-8.57725396 26.54284242 -6.86425596 21.49302442 -5.15380859 16.43041992 C-3.31743278 10.98683515 -1.58215458 5.52366247 0 0 Z " fill="#009FE2" transform="translate(276,163)"/>
</svg>
